<svg width="660" height="192" viewBox="0 0 660 192" fill="none" xmlns="http://www.w3.org/2000/svg">
<path d="M26.752 51.656V141H8.832V51.656H26.752ZM120.873 141H102.953L62.377 79.688V141H44.457V51.528H62.377L102.953 112.968V51.528H120.873V141ZM134.23 96.2C134.23 87.4107 136.193 79.56 140.118 72.648C144.129 65.6507 149.547 60.232 156.374 56.392C163.286 52.4667 171.009 50.504 179.542 50.504C189.526 50.504 198.273 53.064 205.782 58.184C213.291 63.304 218.539 70.3867 221.526 79.432H200.918C198.87 75.1653 195.969 71.9653 192.214 69.832C188.545 67.6987 184.278 66.632 179.414 66.632C174.209 66.632 169.558 67.8693 165.462 70.344C161.451 72.7333 158.294 76.1467 155.99 80.584C153.771 85.0213 152.662 90.2267 152.662 96.2C152.662 102.088 153.771 107.293 155.99 111.816C158.294 116.253 161.451 119.709 165.462 122.184C169.558 124.573 174.209 125.768 179.414 125.768C184.278 125.768 188.545 124.701 192.214 122.568C195.969 120.349 198.87 117.107 200.918 112.84H221.526C218.539 121.971 213.291 129.096 205.782 134.216C198.358 139.251 189.611 141.768 179.542 141.768C171.009 141.768 163.286 139.848 156.374 136.008C149.547 132.083 144.129 126.664 140.118 119.752C136.193 112.84 134.23 104.989 134.23 96.2ZM282.912 141L263.2 106.184H254.752V141H236.832V51.656H270.368C277.28 51.656 283.168 52.8933 288.032 55.368C292.896 57.7573 296.523 61.0427 298.912 65.224C301.387 69.32 302.624 73.928 302.624 79.048C302.624 84.936 300.917 90.2693 297.504 95.048C294.091 99.7413 289.013 102.984 282.272 104.776L303.648 141H282.912ZM254.752 92.744H269.728C274.592 92.744 278.219 91.592 280.608 89.288C282.997 86.8987 284.192 83.6133 284.192 79.432C284.192 75.336 282.997 72.1787 280.608 69.96C278.219 67.656 274.592 66.504 269.728 66.504H254.752V92.744ZM336.752 66.12V88.52H366.832V102.728H336.752V126.408H370.672V141H318.832V51.528H370.672V66.12H336.752ZM441.741 123.976H406.157L400.269 141H381.453L413.581 51.528H434.445L466.573 141H447.629L441.741 123.976ZM436.877 109.64L423.949 72.264L411.021 109.64H436.877ZM509.43 141.896C503.201 141.896 497.569 140.829 492.534 138.696C487.585 136.563 483.659 133.491 480.758 129.48C477.857 125.469 476.363 120.733 476.278 115.272H495.478C495.734 118.941 497.014 121.843 499.318 123.976C501.707 126.109 504.95 127.176 509.046 127.176C513.227 127.176 516.513 126.195 518.902 124.232C521.291 122.184 522.486 119.539 522.486 116.296C522.486 113.651 521.675 111.475 520.054 109.768C518.433 108.061 516.385 106.739 513.91 105.8C511.521 104.776 508.193 103.667 503.926 102.472C498.123 100.765 493.387 99.1013 489.718 97.48C486.134 95.7733 483.019 93.256 480.374 89.928C477.814 86.5147 476.534 81.992 476.534 76.36C476.534 71.0693 477.857 66.4613 480.502 62.536C483.147 58.6107 486.859 55.624 491.638 53.576C496.417 51.4427 501.878 50.376 508.022 50.376C517.238 50.376 524.705 52.6373 530.422 57.16C536.225 61.5973 539.425 67.8267 540.022 75.848H520.31C520.139 72.776 518.817 70.2587 516.342 68.296C513.953 66.248 510.753 65.224 506.742 65.224C503.243 65.224 500.427 66.12 498.294 67.912C496.246 69.704 495.222 72.3067 495.222 75.72C495.222 78.1093 495.99 80.1147 497.526 81.736C499.147 83.272 501.11 84.552 503.414 85.576C505.803 86.5147 509.131 87.624 513.398 88.904C519.201 90.6107 523.937 92.3173 527.606 94.024C531.275 95.7307 534.433 98.2907 537.078 101.704C539.723 105.117 541.046 109.597 541.046 115.144C541.046 119.923 539.809 124.36 537.334 128.456C534.859 132.552 531.233 135.837 526.454 138.312C521.675 140.701 516.001 141.896 509.43 141.896ZM574.502 66.12V88.52H604.582V102.728H574.502V126.408H608.422V141H556.582V51.528H608.422V66.12H574.502Z" fill="white"/>
<path d="M634.944 59.56H628.896V65.768H624.672V59.56H618.624V55.656H624.672V49.448H628.896V55.656H634.944V59.56ZM656.507 59.56H650.459V65.768H646.235V59.56H640.187V55.656H646.235V49.448H650.459V55.656H656.507V59.56Z" fill="#868686"/>
<path d="M232.78 153.8C232.78 155.093 232.4 156.06 231.64 156.7C230.88 157.34 229.76 157.66 228.28 157.66H225.12V164H224.72V149.92H228.28C229.826 149.92 230.96 150.26 231.68 150.94C232.413 151.62 232.78 152.573 232.78 153.8ZM228.28 157.24C229.72 157.24 230.76 156.94 231.4 156.34C232.053 155.74 232.38 154.893 232.38 153.8C232.38 152.653 232.06 151.787 231.42 151.2C230.78 150.613 229.733 150.32 228.28 150.32H225.12V157.24H228.28ZM256.986 164L253.226 157.86H252.846H249.686V164H249.286V149.92H252.806C254.353 149.92 255.499 150.273 256.246 150.98C257.006 151.687 257.386 152.653 257.386 153.88C257.386 155.013 257.066 155.92 256.426 156.6C255.786 157.28 254.873 157.687 253.686 157.82L257.486 164H256.986ZM252.846 157.48C254.219 157.48 255.246 157.153 255.926 156.5C256.619 155.847 256.966 154.973 256.966 153.88C256.966 151.507 255.579 150.32 252.806 150.32H249.686V157.48H252.846ZM280.209 164.16C278.916 164.16 277.756 163.86 276.729 163.26C275.716 162.647 274.922 161.793 274.349 160.7C273.776 159.607 273.489 158.367 273.489 156.98C273.489 155.593 273.776 154.353 274.349 153.26C274.922 152.167 275.716 151.32 276.729 150.72C277.756 150.107 278.916 149.8 280.209 149.8C281.502 149.8 282.656 150.107 283.669 150.72C284.696 151.32 285.496 152.167 286.069 153.26C286.642 154.353 286.929 155.593 286.929 156.98C286.929 158.367 286.642 159.607 286.069 160.7C285.496 161.793 284.696 162.647 283.669 163.26C282.656 163.86 281.502 164.16 280.209 164.16ZM280.209 163.8C281.382 163.8 282.449 163.527 283.409 162.98C284.369 162.42 285.122 161.627 285.669 160.6C286.229 159.56 286.509 158.353 286.509 156.98C286.509 155.607 286.229 154.407 285.669 153.38C285.122 152.34 284.369 151.547 283.409 151C282.449 150.44 281.382 150.16 280.209 150.16C279.036 150.16 277.969 150.44 277.009 151C276.049 151.547 275.289 152.34 274.729 153.38C274.182 154.407 273.909 155.607 273.909 156.98C273.909 158.353 274.182 159.56 274.729 160.6C275.289 161.627 276.049 162.42 277.009 162.98C277.969 163.527 279.036 163.8 280.209 163.8ZM309.049 149.92V161.14C309.049 162.007 308.776 162.727 308.229 163.3C307.696 163.86 306.949 164.14 305.989 164.14C304.949 164.14 304.142 163.82 303.569 163.18C303.009 162.54 302.729 161.66 302.729 160.54H303.129C303.129 161.473 303.356 162.247 303.809 162.86C304.262 163.473 304.989 163.78 305.989 163.78C306.936 163.78 307.616 163.52 308.029 163C308.442 162.467 308.649 161.847 308.649 161.14V149.92H309.049ZM326.745 150.28V156.78H332.625V157.14H326.745V163.64H333.225V164H326.345V149.92H333.225V150.28H326.745ZM349.415 156.98C349.415 155.58 349.695 154.34 350.255 153.26C350.815 152.167 351.595 151.313 352.595 150.7C353.595 150.087 354.722 149.78 355.975 149.78C357.615 149.78 358.968 150.16 360.035 150.92C361.115 151.68 361.902 152.733 362.395 154.08H361.995C361.568 152.893 360.842 151.94 359.815 151.22C358.788 150.5 357.508 150.14 355.975 150.14C354.828 150.14 353.788 150.42 352.855 150.98C351.922 151.527 351.182 152.32 350.635 153.36C350.102 154.387 349.835 155.593 349.835 156.98C349.835 158.353 350.102 159.553 350.635 160.58C351.182 161.607 351.922 162.4 352.855 162.96C353.802 163.507 354.842 163.78 355.975 163.78C357.508 163.78 358.788 163.427 359.815 162.72C360.842 162 361.568 161.047 361.995 159.86H362.395C361.902 161.207 361.115 162.26 360.035 163.02C358.968 163.767 357.615 164.14 355.975 164.14C354.722 164.14 353.595 163.84 352.595 163.24C351.595 162.627 350.815 161.78 350.255 160.7C349.695 159.607 349.415 158.367 349.415 156.98ZM386.586 149.92V150.28H382.486V164H382.086V150.28H377.986V149.92H386.586Z" fill="white"/>
<path d="M249.992 169.92L244.592 184H244.192L238.812 169.92H239.272L244.392 183.4L249.552 169.92H249.992ZM262.295 170.28V176.78H268.175V177.14H262.295V183.64H268.775V184H261.895V169.92H268.775V170.28H262.295ZM288.765 184L285.005 177.86H284.625H281.465V184H281.065V169.92H284.585C286.132 169.92 287.278 170.273 288.025 170.98C288.785 171.687 289.165 172.653 289.165 173.88C289.165 175.013 288.845 175.92 288.205 176.6C287.565 177.28 286.652 177.687 285.465 177.82L289.265 184H288.765ZM284.625 177.48C285.998 177.48 287.025 177.153 287.705 176.5C288.398 175.847 288.745 174.973 288.745 173.88C288.745 171.507 287.358 170.32 284.585 170.32H281.465V177.48H284.625ZM305.228 184.14C304.335 184.14 303.555 183.98 302.888 183.66C302.235 183.34 301.728 182.92 301.368 182.4C301.008 181.867 300.795 181.293 300.728 180.68H301.128C301.195 181.147 301.361 181.613 301.628 182.08C301.908 182.547 302.341 182.947 302.928 183.28C303.528 183.613 304.295 183.78 305.228 183.78C305.975 183.78 306.635 183.64 307.208 183.36C307.781 183.067 308.221 182.68 308.528 182.2C308.835 181.72 308.988 181.187 308.988 180.6C308.988 179.84 308.815 179.24 308.468 178.8C308.121 178.347 307.688 178.013 307.168 177.8C306.661 177.587 305.975 177.367 305.108 177.14C304.201 176.9 303.475 176.66 302.928 176.42C302.381 176.18 301.915 175.813 301.528 175.32C301.155 174.813 300.968 174.133 300.968 173.28C300.968 172.667 301.135 172.093 301.468 171.56C301.815 171.013 302.301 170.58 302.928 170.26C303.568 169.94 304.295 169.78 305.108 169.78C305.935 169.78 306.648 169.927 307.248 170.22C307.848 170.513 308.315 170.887 308.648 171.34C308.995 171.78 309.221 172.247 309.328 172.74H308.928C308.835 172.353 308.641 171.96 308.348 171.56C308.055 171.16 307.635 170.827 307.088 170.56C306.541 170.28 305.881 170.14 305.108 170.14C304.428 170.14 303.801 170.273 303.228 170.54C302.668 170.793 302.215 171.16 301.868 171.64C301.535 172.107 301.368 172.653 301.368 173.28C301.368 174.053 301.541 174.673 301.888 175.14C302.248 175.593 302.688 175.933 303.208 176.16C303.728 176.373 304.421 176.593 305.288 176.82C306.195 177.06 306.915 177.3 307.448 177.54C307.995 177.767 308.455 178.127 308.828 178.62C309.201 179.1 309.388 179.76 309.388 180.6C309.388 181.187 309.228 181.753 308.908 182.3C308.601 182.847 308.135 183.293 307.508 183.64C306.881 183.973 306.121 184.14 305.228 184.14ZM322.091 169.92V184H321.691V169.92H322.091ZM341.319 184.16C340.026 184.16 338.866 183.86 337.839 183.26C336.826 182.647 336.033 181.793 335.459 180.7C334.886 179.607 334.599 178.367 334.599 176.98C334.599 175.593 334.886 174.353 335.459 173.26C336.033 172.167 336.826 171.32 337.839 170.72C338.866 170.107 340.026 169.8 341.319 169.8C342.613 169.8 343.766 170.107 344.779 170.72C345.806 171.32 346.606 172.167 347.179 173.26C347.753 174.353 348.039 175.593 348.039 176.98C348.039 178.367 347.753 179.607 347.179 180.7C346.606 181.793 345.806 182.647 344.779 183.26C343.766 183.86 342.613 184.16 341.319 184.16ZM341.319 183.8C342.493 183.8 343.559 183.527 344.519 182.98C345.479 182.42 346.233 181.627 346.779 180.6C347.339 179.56 347.619 178.353 347.619 176.98C347.619 175.607 347.339 174.407 346.779 173.38C346.233 172.34 345.479 171.547 344.519 171C343.559 170.44 342.493 170.16 341.319 170.16C340.146 170.16 339.079 170.44 338.119 171C337.159 171.547 336.399 172.34 335.839 173.38C335.293 174.407 335.019 175.607 335.019 176.98C335.019 178.353 335.293 179.56 335.839 180.6C336.399 181.627 337.159 182.42 338.119 182.98C339.079 183.527 340.146 183.8 341.319 183.8ZM370.079 184H369.679L360.939 170.66V184H360.539V169.94H360.939L369.679 183.26V169.94H370.079V184Z" fill="white"/>
<line x1="6" y1="169.5" x2="210" y2="169.5" stroke="white"/>
<line x1="406" y1="166.5" x2="610" y2="166.5" stroke="white"/>
</svg>
